<?xml version="1.0" encoding="UTF-8" standalone="no"?>
<!-- Created with Inkscape (http://www.inkscape.org/) -->

<svg
   width="125"
   height="125"
   viewBox="0 0 33.072917 33.072916"
   version="1.1"
   id="svg5"
   sodipodi:docname="dialogo.svg"
   inkscape:version="1.2.2 (732a01da63, 2022-12-09)"
   xmlns:inkscape="http://www.inkscape.org/namespaces/inkscape"
   xmlns:sodipodi="http://sodipodi.sourceforge.net/DTD/sodipodi-0.dtd"
   xmlns="http://www.w3.org/2000/svg"
   xmlns:svg="http://www.w3.org/2000/svg">
  <sodipodi:namedview
     id="namedview7"
     pagecolor="#505050"
     bordercolor="#ffffff"
     borderopacity="1"
     inkscape:showpageshadow="0"
     inkscape:pageopacity="0"
     inkscape:pagecheckerboard="1"
     inkscape:deskcolor="#505050"
     inkscape:document-units="mm"
     showgrid="false"
     inkscape:zoom="8"
     inkscape:cx="82.1875"
     inkscape:cy="72.75"
     inkscape:window-width="3840"
     inkscape:window-height="2126"
     inkscape:window-x="1909"
     inkscape:window-y="-11"
     inkscape:window-maximized="1"
     inkscape:current-layer="layer1" />
  <defs
     id="defs2" />
  <g
     inkscape:label="Capa 1"
     inkscape:groupmode="layer"
     id="layer1">
    <path
       id="path1236"
       style="fill:#000000;stroke-width:0.0759034;fill-opacity:0.5"
       d="M 0.50022786 0.50022786 L 0.50022786 16.499768 A 16 16 0 0 1 0.5446696 15.304492 A 16 16 0 0 1 0.67851156 14.115417 A 16 16 0 0 1 0.90123698 12.939779 A 16 16 0 0 1 1.2107788 11.783777 A 16 16 0 0 1 1.6061035 10.654647 A 16 16 0 0 1 2.0846273 9.5580729 A 16 16 0 0 1 2.6437663 8.5002563 A 16 16 0 0 1 3.2804199 7.4868815 A 16 16 0 0 1 3.9904541 6.5241496 A 16 16 0 0 1 4.771285 5.6172282 A 16 16 0 0 1 5.6172282 4.771285 A 16 16 0 0 1 6.5241496 3.9904541 A 16 16 0 0 1 7.4868815 3.2804199 A 16 16 0 0 1 8.5002563 2.6437663 A 16 16 0 0 1 9.5580729 2.0846273 A 16 16 0 0 1 10.654647 1.6061035 A 16 16 0 0 1 11.783777 1.2107788 A 16 16 0 0 1 12.939779 0.90123698 A 16 16 0 0 1 14.115417 0.67851156 A 16 16 0 0 1 15.304492 0.5446696 A 16 16 0 0 1 16.499768 0.50022786 L 0.50022786 0.50022786 z M 16.499768 0.50022786 A 16 16 0 0 0 15.304492 0.5446696 A 16 16 0 0 0 14.115417 0.67851156 A 16 16 0 0 0 12.939779 0.90123698 A 16 16 0 0 0 11.783777 1.2107788 A 16 16 0 0 0 10.654647 1.6061035 A 16 16 0 0 0 9.5580729 2.0846273 A 16 16 0 0 0 8.5002563 2.6437663 A 16 16 0 0 0 7.4868815 3.2804199 A 16 16 0 0 0 6.5241496 3.9904541 A 16 16 0 0 0 5.6172282 4.771285 A 16 16 0 0 0 4.771285 5.6172282 A 16 16 0 0 0 3.9904541 6.5241496 A 16 16 0 0 0 3.2804199 7.4868815 A 16 16 0 0 0 2.6437663 8.5002563 A 16 16 0 0 0 2.0846273 9.5580729 A 16 16 0 0 0 1.6061035 10.654647 A 16 16 0 0 0 1.2107788 11.783777 A 16 16 0 0 0 0.90123698 12.939779 A 16 16 0 0 0 0.67851156 14.115417 A 16 16 0 0 0 0.5446696 15.304492 A 16 16 0 0 0 0.50022786 16.499768 A 16 16 0 0 0 0.5446696 17.695561 A 16 16 0 0 0 0.67851156 18.884635 A 16 16 0 0 0 0.90123698 20.060274 A 16 16 0 0 0 1.2107788 21.216276 A 16 16 0 0 0 1.6061035 22.345406 A 16 16 0 0 0 2.0846273 23.44198 A 16 16 0 0 0 2.6437663 24.499797 A 16 16 0 0 0 3.2804199 25.513171 A 16 16 0 0 0 3.9904541 26.475903 A 16 16 0 0 0 4.771285 27.382825 A 16 16 0 0 0 5.6172282 28.228768 A 16 16 0 0 0 6.5241496 29.009082 A 16 16 0 0 0 7.4868815 29.719633 A 16 16 0 0 0 8.5002563 30.356287 A 16 16 0 0 0 9.5580729 30.915426 A 16 16 0 0 0 10.654647 31.393949 A 16 16 0 0 0 11.783777 31.789274 A 16 16 0 0 0 12.939779 32.098816 A 16 16 0 0 0 14.115417 32.321541 A 16 16 0 0 0 15.304492 32.455383 A 16 16 0 0 0 16.499768 32.499825 A 16 16 0 0 0 17.695561 32.455383 A 16 16 0 0 0 18.884635 32.321541 A 16 16 0 0 0 20.060274 32.098816 A 16 16 0 0 0 21.216276 31.789274 A 16 16 0 0 0 22.345406 31.393949 A 16 16 0 0 0 23.44198 30.915426 A 16 16 0 0 0 24.499797 30.356287 A 16 16 0 0 0 25.513171 29.719633 A 16 16 0 0 0 26.475903 29.009082 A 16 16 0 0 0 27.382825 28.228768 A 16 16 0 0 0 28.228768 27.382825 A 16 16 0 0 0 29.009082 26.475903 A 16 16 0 0 0 29.719633 25.513171 A 16 16 0 0 0 30.356287 24.499797 A 16 16 0 0 0 30.915426 23.44198 A 16 16 0 0 0 31.393949 22.345406 A 16 16 0 0 0 31.789274 21.216276 A 16 16 0 0 0 32.098816 20.060274 A 16 16 0 0 0 32.321541 18.884635 A 16 16 0 0 0 32.455383 17.695561 A 16 16 0 0 0 32.456417 17.680575 A 16 16 0 0 1 32.455383 17.695561 A 16 16 0 0 1 32.321541 18.884635 A 16 16 0 0 1 32.098816 20.060274 A 16 16 0 0 1 31.789274 21.216276 A 16 16 0 0 1 31.393949 22.345406 A 16 16 0 0 1 30.915426 23.44198 A 16 16 0 0 1 30.356287 24.499797 A 16 16 0 0 1 29.719633 25.513171 A 16 16 0 0 1 29.009082 26.475903 A 16 16 0 0 1 28.228768 27.382825 A 16 16 0 0 1 27.382825 28.228768 A 16 16 0 0 1 26.475903 29.009082 A 16 16 0 0 1 25.513171 29.719633 A 16 16 0 0 1 24.499797 30.356287 A 16 16 0 0 1 23.44198 30.915426 A 16 16 0 0 1 22.345406 31.393949 A 16 16 0 0 1 21.216276 31.789274 A 16 16 0 0 1 20.060274 32.098816 A 16 16 0 0 1 18.884635 32.321541 A 16 16 0 0 1 17.695561 32.455383 A 16 16 0 0 1 16.499768 32.499825 L 32.499825 32.499825 L 32.499825 16.594336 A 16 16 0 0 0 32.499825 16.499768 A 16 16 0 0 0 32.494657 16.087907 A 16 16 0 0 0 32.478638 15.676562 A 16 16 0 0 0 32.452283 15.265218 A 16 16 0 0 0 32.415076 14.854907 A 16 16 0 0 0 32.367533 14.44563 A 16 16 0 0 0 32.309656 14.037903 A 16 16 0 0 0 32.240926 13.631726 A 16 16 0 0 0 32.161861 13.2271 A 16 16 0 0 0 32.072461 12.825057 A 16 16 0 0 0 31.972209 12.425081 A 16 16 0 0 0 31.862655 12.028206 A 16 16 0 0 0 31.742249 11.633915 A 16 16 0 0 0 31.612024 11.243241 A 16 16 0 0 0 31.471464 10.856185 A 16 16 0 0 0 31.321086 10.472229 A 16 16 0 0 0 31.160889 10.092924 A 16 16 0 0 0 30.99139 9.7172363 A 16 16 0 0 0 30.811556 9.3467163 A 16 16 0 0 0 30.622937 8.9803304 A 16 16 0 0 0 30.4245 8.6191121 A 16 16 0 0 0 30.217277 8.2630615 A 16 16 0 0 0 30.000236 7.9126953 A 16 16 0 0 0 29.774927 7.5680135 A 16 16 0 0 0 29.540316 7.2290161 A 16 16 0 0 0 29.297437 6.8967367 A 16 16 0 0 0 29.045772 6.5701416 A 16 16 0 0 0 28.78584 6.2502645 A 16 16 0 0 0 28.518156 5.9376221 A 16 16 0 0 0 28.242204 5.6316976 A 16 16 0 0 0 27.9585 5.3330078 A 16 16 0 0 0 27.667045 5.0415527 A 16 16 0 0 0 27.368355 4.7578491 A 16 16 0 0 0 27.062431 4.481897 A 16 16 0 0 0 26.749272 4.2136963 A 16 16 0 0 0 26.429911 3.9542806 A 16 16 0 0 0 26.103316 3.7026164 A 16 16 0 0 0 25.77052 3.4597371 A 16 16 0 0 0 25.432039 3.2251261 A 16 16 0 0 0 25.087358 2.9998169 A 16 16 0 0 0 24.736475 2.7827759 A 16 16 0 0 0 24.380941 2.5755534 A 16 16 0 0 0 24.019722 2.3771159 A 16 16 0 0 0 23.653337 2.1879801 A 16 16 0 0 0 23.282817 2.0086629 A 16 16 0 0 0 22.907129 1.8391642 A 16 16 0 0 0 22.527824 1.6789673 A 16 16 0 0 0 22.143868 1.5285889 A 16 16 0 0 0 21.756812 1.388029 A 16 16 0 0 0 21.365621 1.2578044 A 16 16 0 0 0 20.971847 1.1373983 A 16 16 0 0 0 20.574972 1.0273275 A 16 16 0 0 0 20.174996 0.92759196 A 16 16 0 0 0 19.772953 0.83819173 A 16 16 0 0 0 19.368327 0.75912679 A 16 16 0 0 0 18.96215 0.69039714 A 16 16 0 0 0 18.554423 0.63251953 A 16 16 0 0 0 18.145146 0.58497721 A 16 16 0 0 0 17.734835 0.54777018 A 16 16 0 0 0 17.32349 0.5214152 A 16 16 0 0 0 16.912146 0.50539551 A 16 16 0 0 0 16.499768 0.50022786 z M 32.499308 16.647563 A 16 16 0 0 1 32.498792 16.662549 A 16 16 0 0 0 32.499308 16.647563 z M 32.497241 16.795357 A 16 16 0 0 1 32.496724 16.809827 A 16 16 0 0 0 32.497241 16.795357 z M 32.495691 16.869255 A 16 16 0 0 1 32.495174 16.883724 A 16 16 0 0 0 32.495691 16.869255 z M 32.491557 17.017049 A 16 16 0 0 1 32.49104 17.031519 A 16 16 0 0 0 32.491557 17.017049 z M 32.490523 17.046505 A 16 16 0 0 1 32.490007 17.066659 A 16 16 0 0 0 32.490523 17.046505 z M 32.483289 17.234607 A 16 16 0 0 1 32.482772 17.244942 A 16 16 0 0 0 32.483289 17.234607 z M 32.479671 17.307987 A 16 16 0 0 1 32.479154 17.318323 A 16 16 0 0 0 32.479671 17.307987 z M 32.477087 17.360181 A 16 16 0 0 1 32.475537 17.378784 A 16 16 0 0 0 32.477087 17.360181 z M 32.470369 17.475419 A 16 16 0 0 1 32.469336 17.489372 A 16 16 0 0 0 32.470369 17.475419 z M 32.465719 17.5488 A 16 16 0 0 1 32.464685 17.562752 A 16 16 0 0 0 32.465719 17.5488 z M 32.461584 17.607194 A 16 16 0 0 1 32.460551 17.621663 A 16 16 0 0 0 32.461584 17.607194 z " />
  </g>
  <g
     inkscape:groupmode="layer"
     id="layer2"
     inkscape:label="Capa 2" />
</svg>
